<svg xmlns="http://www.w3.org/2000/svg" width="33.309" height="33.301" viewBox="0 0 33.309 33.301">
  <path id="Icon_awesome-instagram" data-name="Icon awesome-instagram" d="M16.653,10.35a8.538,8.538,0,1,0,8.538,8.538A8.525,8.525,0,0,0,16.653,10.35Zm0,14.089A5.551,5.551,0,1,1,22.2,18.888a5.561,5.561,0,0,1-5.551,5.551ZM27.532,10A1.991,1.991,0,1,1,25.54,8.01,1.987,1.987,0,0,1,27.532,10Zm5.655,2.021A9.855,9.855,0,0,0,30.5,5.045a9.92,9.92,0,0,0-6.978-2.69c-2.749-.156-10.99-.156-13.74,0A9.906,9.906,0,0,0,2.8,5.037C.847,6.984.246,9.347.112,12.015c-.156,2.749-.156,10.99,0,13.74A9.855,9.855,0,0,0,2.8,32.732a9.933,9.933,0,0,0,6.978,2.69c2.749.156,10.99.156,13.74,0a9.855,9.855,0,0,0,6.978-2.69,9.92,9.92,0,0,0,2.69-6.978c.156-2.749.156-10.983,0-13.732ZM29.635,28.7a5.62,5.62,0,0,1-3.166,3.166c-2.192.869-7.394.669-9.816.669s-7.631.193-9.816-.669A5.62,5.62,0,0,1,3.671,28.7C2.8,26.512,3,21.311,3,18.888s-.193-7.632.669-9.816A5.62,5.62,0,0,1,6.837,5.907c2.192-.869,7.394-.669,9.816-.669s7.631-.193,9.816.669a5.62,5.62,0,0,1,3.166,3.166c.869,2.192.669,7.394.669,9.816S30.5,26.52,29.635,28.7Z" transform="translate(0.005 -2.238)" fill="#9609db"/>
</svg>
