<svg xmlns="http://www.w3.org/2000/svg" width="33.301" height="33.301" viewBox="0 0 33.301 33.301">
  <path id="Icon_awesome-whatsapp" data-name="Icon awesome-whatsapp" d="M28.314,7.089A16.507,16.507,0,0,0,2.342,27L0,35.552l8.749-2.3a16.452,16.452,0,0,0,7.887,2.007h.007A16.661,16.661,0,0,0,33.3,18.76a16.567,16.567,0,0,0-4.988-11.67ZM16.643,32.482a13.692,13.692,0,0,1-6.987-1.91l-.5-.3-5.188,1.36,1.383-5.062-.327-.52A13.743,13.743,0,1,1,30.514,18.76,13.869,13.869,0,0,1,16.643,32.482Zm7.523-10.273c-.409-.208-2.438-1.2-2.817-1.338s-.654-.208-.929.208-1.063,1.338-1.308,1.62-.483.312-.892.1C15.8,21.592,14.205,20.64,12.607,17.9c-.424-.728.424-.676,1.212-2.252a.764.764,0,0,0-.037-.721c-.1-.208-.929-2.237-1.271-3.063-.335-.8-.676-.691-.929-.706s-.513-.015-.788-.015a1.527,1.527,0,0,0-1.1.513,4.633,4.633,0,0,0-1.442,3.442,8.078,8.078,0,0,0,1.68,4.267c.208.275,2.906,4.438,7.047,6.229,2.617,1.13,3.642,1.227,4.951,1.033a4.223,4.223,0,0,0,2.78-1.962,3.449,3.449,0,0,0,.238-1.962C24.85,22.513,24.575,22.409,24.166,22.209Z" transform="translate(0 -2.25)" fill="#9609db"/>
</svg>
